<svg width="400" height="400" viewBox="0 0 400 400" fill="none" xmlns="http://www.w3.org/2000/svg">
<rect width="400" height="400" fill="black"/>
<path d="M107.405 166.753H96.5112V152.378H134.302V166.753H122.51V237.562H103.755L67.1436 174.783V222.625H77.7563V237H40.6958V222.625H52.0947V166.753H40.6958V152.378H76.2402L107.405 205.274V166.753ZM198.091 211.451H154.067C154.517 215.98 156.07 219.574 158.728 222.232C161.423 224.852 164.886 226.163 169.116 226.163C173.796 226.163 178.363 223.842 182.817 219.2L197.417 223.917C194.198 228.746 190.211 232.377 185.457 234.81C180.702 237.206 175.068 238.404 168.555 238.404C162.041 238.404 156.276 237.187 151.26 234.754C146.281 232.283 142.406 228.802 139.636 224.31C136.903 219.817 135.537 214.539 135.537 208.475C135.537 202.485 136.96 197.057 139.805 192.19C142.687 187.324 146.562 183.524 151.428 180.792C156.332 178.021 161.648 176.636 167.375 176.636C173.59 176.636 178.999 178.077 183.604 180.96C188.208 183.805 191.746 187.867 194.216 193.145C196.724 198.386 198.016 204.488 198.091 211.451ZM166.477 189.158C163.108 189.158 160.394 190.132 158.335 192.078C156.313 194.025 155.041 197.001 154.517 201.006H179.111C178.587 197.487 177.146 194.642 174.788 192.471C172.467 190.263 169.696 189.158 166.477 189.158ZM225.044 191.797L232.119 213.641L244.36 177.984H259.858L271.594 213.641L278.838 191.797H272.043V177.984H300.569V191.797H293.325L277.939 237.898H261.599L250.088 203.196L238.689 237.898H222.349L206.851 191.797H199.27V177.984H231.445V191.797H225.044ZM342.346 180.062V177.984H355.767V195.279H342.346C341.186 191.124 336.881 189.046 329.431 189.046C324.078 189.046 321.401 190.543 321.401 193.538C321.401 194.848 322.113 195.822 323.535 196.458C324.958 197.094 327.035 197.618 329.768 198.03C337.442 199.004 343.488 200.407 347.905 202.242C352.323 204.039 355.411 206.285 357.17 208.98C358.93 211.638 359.81 214.876 359.81 218.694C359.81 224.909 357.676 229.756 353.408 233.238C349.178 236.682 343.413 238.404 336.113 238.404C329.001 238.404 324.172 236.981 321.626 234.136V237H307.925V216.673H321.626C322 219.48 323.348 221.689 325.669 223.299C328.027 224.909 330.929 225.713 334.373 225.713C337.742 225.713 340.231 225.339 341.841 224.59C343.451 223.804 344.255 222.457 344.255 220.547C344.255 219.237 343.918 218.226 343.245 217.515C342.571 216.766 341.261 216.111 339.314 215.55C337.405 214.988 334.466 214.352 330.498 213.641C321.663 212.256 315.299 210.028 311.406 206.958C307.55 203.851 305.623 199.677 305.623 194.437C305.623 189.083 307.625 184.872 311.631 181.802C315.674 178.733 320.99 177.198 327.578 177.198C332.894 177.198 337.817 178.152 342.346 180.062Z" fill="#E7B27F"/>
</svg>
